<mxfile host="app.diagrams.net" agent="Mozilla/5.0 (Windows NT 10.0; Win64; x64) AppleWebKit/537.36 (KHTML, like Gecko) Chrome/134.0.0.0 Safari/537.36 OPR/119.0.0.0" version="27.1.3">
  <diagram id="C5RBs43oDa-KdzZeNtuy" name="Page-1">
    <mxGraphModel dx="3299" dy="2477" grid="1" gridSize="10" guides="1" tooltips="1" connect="1" arrows="1" fold="1" page="1" pageScale="1" pageWidth="827" pageHeight="1169" math="0" shadow="0">
      <root>
        <mxCell id="WIyWlLk6GJQsqaUBKTNV-0" />
        <mxCell id="WIyWlLk6GJQsqaUBKTNV-1" parent="WIyWlLk6GJQsqaUBKTNV-0" />
        <mxCell id="b87di34r01hxxmTsJ-qe-17" style="edgeStyle=orthogonalEdgeStyle;rounded=0;orthogonalLoop=1;jettySize=auto;html=1;entryX=0.5;entryY=0;entryDx=0;entryDy=0;endArrow=none;startFill=0;" edge="1" parent="WIyWlLk6GJQsqaUBKTNV-1" source="tfznbN89w9xABcOKFlEP-0" target="b87di34r01hxxmTsJ-qe-12">
          <mxGeometry relative="1" as="geometry" />
        </mxCell>
        <mxCell id="tfznbN89w9xABcOKFlEP-0" value="DashboardService" style="swimlane;fontStyle=1;align=center;verticalAlign=top;childLayout=stackLayout;horizontal=1;startSize=26;horizontalStack=0;resizeParent=1;resizeParentMax=0;resizeLast=0;collapsible=1;marginBottom=0;whiteSpace=wrap;html=1;" parent="WIyWlLk6GJQsqaUBKTNV-1" vertex="1">
          <mxGeometry x="-90" y="-210" width="310" height="104" as="geometry" />
        </mxCell>
        <mxCell id="tfznbN89w9xABcOKFlEP-2" value="" style="line;strokeWidth=1;fillColor=none;align=left;verticalAlign=middle;spacingTop=-1;spacingLeft=3;spacingRight=3;rotatable=0;labelPosition=right;points=[];portConstraint=eastwest;strokeColor=inherit;" parent="tfznbN89w9xABcOKFlEP-0" vertex="1">
          <mxGeometry y="26" width="310" height="8" as="geometry" />
        </mxCell>
        <mxCell id="tfznbN89w9xABcOKFlEP-3" value="+ getDashboard(): Dashboard&lt;div&gt;- getGrafikDataFromDB(): GrafikData&lt;/div&gt;&lt;div&gt;- getGrafikPenjualanFromDB(): GrafikData&lt;/div&gt;&lt;div&gt;- getTopProdukFromDB(): List&amp;amp;lt;Produk&amp;gt;&lt;/div&gt;" style="text;strokeColor=none;fillColor=none;align=left;verticalAlign=top;spacingLeft=4;spacingRight=4;overflow=hidden;rotatable=0;points=[[0,0.5],[1,0.5]];portConstraint=eastwest;whiteSpace=wrap;html=1;" parent="tfznbN89w9xABcOKFlEP-0" vertex="1">
          <mxGeometry y="34" width="310" height="70" as="geometry" />
        </mxCell>
        <mxCell id="tfznbN89w9xABcOKFlEP-8" value="GrafikData" style="swimlane;fontStyle=1;align=center;verticalAlign=top;childLayout=stackLayout;horizontal=1;startSize=26;horizontalStack=0;resizeParent=1;resizeParentMax=0;resizeLast=0;collapsible=1;marginBottom=0;whiteSpace=wrap;html=1;" parent="WIyWlLk6GJQsqaUBKTNV-1" vertex="1">
          <mxGeometry x="350" width="310" height="150" as="geometry" />
        </mxCell>
        <mxCell id="tfznbN89w9xABcOKFlEP-9" value="- labels : List&amp;lt;String&amp;gt;&amp;nbsp;&lt;div&gt;&lt;span style=&quot;background-color: transparent; color: light-dark(rgb(0, 0, 0), rgb(255, 255, 255));&quot;&gt;- data : List&amp;lt;Double&amp;gt;&lt;/span&gt;&lt;/div&gt;" style="text;strokeColor=none;fillColor=none;align=left;verticalAlign=top;spacingLeft=4;spacingRight=4;overflow=hidden;rotatable=0;points=[[0,0.5],[1,0.5]];portConstraint=eastwest;whiteSpace=wrap;html=1;" parent="tfznbN89w9xABcOKFlEP-8" vertex="1">
          <mxGeometry y="26" width="310" height="34" as="geometry" />
        </mxCell>
        <mxCell id="tfznbN89w9xABcOKFlEP-10" value="" style="line;strokeWidth=1;fillColor=none;align=left;verticalAlign=middle;spacingTop=-1;spacingLeft=3;spacingRight=3;rotatable=0;labelPosition=right;points=[];portConstraint=eastwest;strokeColor=inherit;" parent="tfznbN89w9xABcOKFlEP-8" vertex="1">
          <mxGeometry y="60" width="310" height="8" as="geometry" />
        </mxCell>
        <mxCell id="tfznbN89w9xABcOKFlEP-11" value="+ GrafikData(labels : List&amp;lt;String&amp;gt;, data : List&amp;lt;Double&amp;gt;)&lt;br&gt;    + getLabels() : List&amp;lt;String&amp;gt;&lt;br&gt;    + setLabels(labels : List&amp;lt;String&amp;gt;) : void&lt;br&gt;    + getData() : List&amp;lt;Double&amp;gt;&lt;br&gt;    + setData(data : List&amp;lt;Double&amp;gt;) : void" style="text;strokeColor=none;fillColor=none;align=left;verticalAlign=top;spacingLeft=4;spacingRight=4;overflow=hidden;rotatable=0;points=[[0,0.5],[1,0.5]];portConstraint=eastwest;whiteSpace=wrap;html=1;" parent="tfznbN89w9xABcOKFlEP-8" vertex="1">
          <mxGeometry y="68" width="310" height="82" as="geometry" />
        </mxCell>
        <mxCell id="b87di34r01hxxmTsJ-qe-19" style="edgeStyle=orthogonalEdgeStyle;rounded=0;orthogonalLoop=1;jettySize=auto;html=1;entryX=0.5;entryY=0;entryDx=0;entryDy=0;endArrow=none;startFill=0;" edge="1" parent="WIyWlLk6GJQsqaUBKTNV-1" source="tfznbN89w9xABcOKFlEP-12" target="tfznbN89w9xABcOKFlEP-20">
          <mxGeometry relative="1" as="geometry" />
        </mxCell>
        <mxCell id="b87di34r01hxxmTsJ-qe-20" style="edgeStyle=orthogonalEdgeStyle;rounded=0;orthogonalLoop=1;jettySize=auto;html=1;entryX=0.5;entryY=0;entryDx=0;entryDy=0;endArrow=none;startFill=0;" edge="1" parent="WIyWlLk6GJQsqaUBKTNV-1" source="tfznbN89w9xABcOKFlEP-12" target="b87di34r01hxxmTsJ-qe-8">
          <mxGeometry relative="1" as="geometry" />
        </mxCell>
        <mxCell id="tfznbN89w9xABcOKFlEP-12" value="LaporanService" style="swimlane;fontStyle=1;align=center;verticalAlign=top;childLayout=stackLayout;horizontal=1;startSize=26;horizontalStack=0;resizeParent=1;resizeParentMax=0;resizeLast=0;collapsible=1;marginBottom=0;whiteSpace=wrap;html=1;" parent="WIyWlLk6GJQsqaUBKTNV-1" vertex="1">
          <mxGeometry x="-90" y="290" width="420" height="120" as="geometry" />
        </mxCell>
        <mxCell id="tfznbN89w9xABcOKFlEP-14" value="" style="line;strokeWidth=1;fillColor=none;align=left;verticalAlign=middle;spacingTop=-1;spacingLeft=3;spacingRight=3;rotatable=0;labelPosition=right;points=[];portConstraint=eastwest;strokeColor=inherit;" parent="tfznbN89w9xABcOKFlEP-12" vertex="1">
          <mxGeometry y="26" width="420" height="8" as="geometry" />
        </mxCell>
        <mxCell id="tfznbN89w9xABcOKFlEP-15" value="+ getTransaksiByMonth(tahun : int, bulan : int) : List&amp;lt;JudulTransaksi&amp;gt;&lt;div&gt;+ setNoPesanan(noPesanan : String) : void&lt;br&gt;+ setNamaPembeli(namaPembeli : String) : void&lt;br&gt;+ setTanggalTransaksi(tanggal : LocalDate) : void&lt;br&gt;+ setTotalTransaksi(total : BigDecimal) : void&lt;/div&gt;" style="text;strokeColor=none;fillColor=none;align=left;verticalAlign=top;spacingLeft=4;spacingRight=4;overflow=hidden;rotatable=0;points=[[0,0.5],[1,0.5]];portConstraint=eastwest;whiteSpace=wrap;html=1;" parent="tfznbN89w9xABcOKFlEP-12" vertex="1">
          <mxGeometry y="34" width="420" height="86" as="geometry" />
        </mxCell>
        <mxCell id="b87di34r01hxxmTsJ-qe-23" style="edgeStyle=orthogonalEdgeStyle;rounded=0;orthogonalLoop=1;jettySize=auto;html=1;entryX=0.5;entryY=0;entryDx=0;entryDy=0;endArrow=none;startFill=0;" edge="1" parent="WIyWlLk6GJQsqaUBKTNV-1" source="tfznbN89w9xABcOKFlEP-16" target="b87di34r01hxxmTsJ-qe-4">
          <mxGeometry relative="1" as="geometry" />
        </mxCell>
        <mxCell id="tfznbN89w9xABcOKFlEP-16" value="TransaksiService" style="swimlane;fontStyle=1;align=center;verticalAlign=top;childLayout=stackLayout;horizontal=1;startSize=26;horizontalStack=0;resizeParent=1;resizeParentMax=0;resizeLast=0;collapsible=1;marginBottom=0;whiteSpace=wrap;html=1;" parent="WIyWlLk6GJQsqaUBKTNV-1" vertex="1">
          <mxGeometry x="-90" y="710" width="270" height="60" as="geometry" />
        </mxCell>
        <mxCell id="tfznbN89w9xABcOKFlEP-18" value="" style="line;strokeWidth=1;fillColor=none;align=left;verticalAlign=middle;spacingTop=-1;spacingLeft=3;spacingRight=3;rotatable=0;labelPosition=right;points=[];portConstraint=eastwest;strokeColor=inherit;" parent="tfznbN89w9xABcOKFlEP-16" vertex="1">
          <mxGeometry y="26" width="270" height="8" as="geometry" />
        </mxCell>
        <mxCell id="tfznbN89w9xABcOKFlEP-19" value="+ addTransaksi(judul: JudulTransaksi): boolean" style="text;strokeColor=none;fillColor=none;align=left;verticalAlign=top;spacingLeft=4;spacingRight=4;overflow=hidden;rotatable=0;points=[[0,0.5],[1,0.5]];portConstraint=eastwest;whiteSpace=wrap;html=1;" parent="tfznbN89w9xABcOKFlEP-16" vertex="1">
          <mxGeometry y="34" width="270" height="26" as="geometry" />
        </mxCell>
        <mxCell id="tfznbN89w9xABcOKFlEP-20" value="CetakLaporanAction" style="swimlane;fontStyle=1;align=center;verticalAlign=top;childLayout=stackLayout;horizontal=1;startSize=26;horizontalStack=0;resizeParent=1;resizeParentMax=0;resizeLast=0;collapsible=1;marginBottom=0;whiteSpace=wrap;html=1;" parent="WIyWlLk6GJQsqaUBKTNV-1" vertex="1">
          <mxGeometry x="-90" y="530" width="280" height="90" as="geometry" />
        </mxCell>
        <mxCell id="tfznbN89w9xABcOKFlEP-22" value="" style="line;strokeWidth=1;fillColor=none;align=left;verticalAlign=middle;spacingTop=-1;spacingLeft=3;spacingRight=3;rotatable=0;labelPosition=right;points=[];portConstraint=eastwest;strokeColor=inherit;" parent="tfznbN89w9xABcOKFlEP-20" vertex="1">
          <mxGeometry y="26" width="280" height="8" as="geometry" />
        </mxCell>
        <mxCell id="tfznbN89w9xABcOKFlEP-23" value="+ execute(request: HttpServletRequest, response: HttpServletResponse): String&lt;div&gt;+ execute(request: HttpServletRequest): String&lt;/div&gt;" style="text;strokeColor=none;fillColor=none;align=left;verticalAlign=top;spacingLeft=4;spacingRight=4;overflow=hidden;rotatable=0;points=[[0,0.5],[1,0.5]];portConstraint=eastwest;whiteSpace=wrap;html=1;" parent="tfznbN89w9xABcOKFlEP-20" vertex="1">
          <mxGeometry y="34" width="280" height="56" as="geometry" />
        </mxCell>
        <mxCell id="tfznbN89w9xABcOKFlEP-32" value="Pengguna" style="swimlane;fontStyle=1;align=center;verticalAlign=top;childLayout=stackLayout;horizontal=1;startSize=26;horizontalStack=0;resizeParent=1;resizeParentMax=0;resizeLast=0;collapsible=1;marginBottom=0;whiteSpace=wrap;html=1;" parent="WIyWlLk6GJQsqaUBKTNV-1" vertex="1">
          <mxGeometry x="390" y="1350" width="240" height="240" as="geometry" />
        </mxCell>
        <mxCell id="tfznbN89w9xABcOKFlEP-33" value="- nama: String&lt;div&gt;- password: String&lt;/div&gt;&lt;div&gt;- recovery: String&lt;/div&gt;" style="text;strokeColor=none;fillColor=none;align=left;verticalAlign=top;spacingLeft=4;spacingRight=4;overflow=hidden;rotatable=0;points=[[0,0.5],[1,0.5]];portConstraint=eastwest;whiteSpace=wrap;html=1;" parent="tfznbN89w9xABcOKFlEP-32" vertex="1">
          <mxGeometry y="26" width="240" height="64" as="geometry" />
        </mxCell>
        <mxCell id="tfznbN89w9xABcOKFlEP-34" value="" style="line;strokeWidth=1;fillColor=none;align=left;verticalAlign=middle;spacingTop=-1;spacingLeft=3;spacingRight=3;rotatable=0;labelPosition=right;points=[];portConstraint=eastwest;strokeColor=inherit;" parent="tfznbN89w9xABcOKFlEP-32" vertex="1">
          <mxGeometry y="90" width="240" height="8" as="geometry" />
        </mxCell>
        <mxCell id="tfznbN89w9xABcOKFlEP-35" value="+ Pengguna()&lt;div&gt;+ Pengguna(nama: String, password: String, recovery: String)&lt;/div&gt;&lt;div&gt;+ getNama(): String&lt;/div&gt;&lt;div&gt;+ setNama(nama: String): void&lt;/div&gt;&lt;div&gt;+ getPassword(): String&lt;/div&gt;&lt;div&gt;+ setPassword(password: String): void&lt;/div&gt;&lt;div&gt;+ getRecovery(): String&lt;/div&gt;&lt;div&gt;+ setRecovery(recovery: String): void&lt;/div&gt;" style="text;strokeColor=none;fillColor=none;align=left;verticalAlign=top;spacingLeft=4;spacingRight=4;overflow=hidden;rotatable=0;points=[[0,0.5],[1,0.5]];portConstraint=eastwest;whiteSpace=wrap;html=1;" parent="tfznbN89w9xABcOKFlEP-32" vertex="1">
          <mxGeometry y="98" width="240" height="142" as="geometry" />
        </mxCell>
        <mxCell id="tfznbN89w9xABcOKFlEP-52" value="PenggunaService" style="swimlane;fontStyle=1;align=center;verticalAlign=top;childLayout=stackLayout;horizontal=1;startSize=26;horizontalStack=0;resizeParent=1;resizeParentMax=0;resizeLast=0;collapsible=1;marginBottom=0;whiteSpace=wrap;html=1;" parent="WIyWlLk6GJQsqaUBKTNV-1" vertex="1">
          <mxGeometry x="-90" y="1350" width="360" height="100" as="geometry" />
        </mxCell>
        <mxCell id="tfznbN89w9xABcOKFlEP-54" value="" style="line;strokeWidth=1;fillColor=none;align=left;verticalAlign=middle;spacingTop=-1;spacingLeft=3;spacingRight=3;rotatable=0;labelPosition=right;points=[];portConstraint=eastwest;strokeColor=inherit;" parent="tfznbN89w9xABcOKFlEP-52" vertex="1">
          <mxGeometry y="26" width="360" height="8" as="geometry" />
        </mxCell>
        <mxCell id="tfznbN89w9xABcOKFlEP-55" value="+ validatePengguna(nama: String, password: String): Pengguna&lt;div&gt;+ getPenggunaByNama(nama: String): Pengguna&lt;/div&gt;&lt;div&gt;- mapResultSetToPengguna(rs: ResultSet): Pengguna&lt;/div&gt;" style="text;strokeColor=none;fillColor=none;align=left;verticalAlign=top;spacingLeft=4;spacingRight=4;overflow=hidden;rotatable=0;points=[[0,0.5],[1,0.5]];portConstraint=eastwest;whiteSpace=wrap;html=1;" parent="tfznbN89w9xABcOKFlEP-52" vertex="1">
          <mxGeometry y="34" width="360" height="66" as="geometry" />
        </mxCell>
        <mxCell id="tfznbN89w9xABcOKFlEP-56" value="produk" style="swimlane;fontStyle=1;align=center;verticalAlign=top;childLayout=stackLayout;horizontal=1;startSize=26;horizontalStack=0;resizeParent=1;resizeParentMax=0;resizeLast=0;collapsible=1;marginBottom=0;whiteSpace=wrap;html=1;" parent="WIyWlLk6GJQsqaUBKTNV-1" vertex="1">
          <mxGeometry x="-90" y="1640" width="400" height="280" as="geometry" />
        </mxCell>
        <mxCell id="tfznbN89w9xABcOKFlEP-57" value="- kodeProduk: String&lt;div&gt;- nama: String&lt;/div&gt;&lt;div&gt;- harga: BigDecimal&lt;/div&gt;&lt;div&gt;- stok: int&lt;/div&gt;" style="text;strokeColor=none;fillColor=none;align=left;verticalAlign=top;spacingLeft=4;spacingRight=4;overflow=hidden;rotatable=0;points=[[0,0.5],[1,0.5]];portConstraint=eastwest;whiteSpace=wrap;html=1;" parent="tfznbN89w9xABcOKFlEP-56" vertex="1">
          <mxGeometry y="26" width="400" height="74" as="geometry" />
        </mxCell>
        <mxCell id="tfznbN89w9xABcOKFlEP-58" value="" style="line;strokeWidth=1;fillColor=none;align=left;verticalAlign=middle;spacingTop=-1;spacingLeft=3;spacingRight=3;rotatable=0;labelPosition=right;points=[];portConstraint=eastwest;strokeColor=inherit;" parent="tfznbN89w9xABcOKFlEP-56" vertex="1">
          <mxGeometry y="100" width="400" height="8" as="geometry" />
        </mxCell>
        <mxCell id="tfznbN89w9xABcOKFlEP-59" value="+ Produk()&lt;div&gt;+ Produk(kodeProduk: String, nama: String, harga: BigDecimal, stok: int)&lt;/div&gt;&lt;div&gt;+ getKodeProduk(): String&lt;/div&gt;&lt;div&gt;+ setKodeProduk(kodeProduk: String): void&lt;/div&gt;&lt;div&gt;+ getNama(): String&lt;/div&gt;&lt;div&gt;+ setNama(nama: String): void&lt;/div&gt;&lt;div&gt;+ getHarga(): BigDecimal&lt;/div&gt;&lt;div&gt;+ setHarga(harga: BigDecimal): void&lt;/div&gt;&lt;div&gt;+ getStok(): int&lt;/div&gt;&lt;div&gt;+ setStok(stok: int): void&lt;/div&gt;&lt;div&gt;+ toString(): String&lt;/div&gt;" style="text;strokeColor=none;fillColor=none;align=left;verticalAlign=top;spacingLeft=4;spacingRight=4;overflow=hidden;rotatable=0;points=[[0,0.5],[1,0.5]];portConstraint=eastwest;whiteSpace=wrap;html=1;" parent="tfznbN89w9xABcOKFlEP-56" vertex="1">
          <mxGeometry y="108" width="400" height="172" as="geometry" />
        </mxCell>
        <mxCell id="b87di34r01hxxmTsJ-qe-4" value="DetailTransaksi" style="swimlane;fontStyle=1;align=center;verticalAlign=top;childLayout=stackLayout;horizontal=1;startSize=26;horizontalStack=0;resizeParent=1;resizeParentMax=0;resizeLast=0;collapsible=1;marginBottom=0;whiteSpace=wrap;html=1;" vertex="1" parent="WIyWlLk6GJQsqaUBKTNV-1">
          <mxGeometry x="-90" y="900" width="740" height="390" as="geometry" />
        </mxCell>
        <mxCell id="b87di34r01hxxmTsJ-qe-5" value="    - idDetail : int&lt;br/&gt;    - noPesanan : String&lt;br/&gt;    - produk : Produk&lt;br/&gt;    - nama : String&lt;br/&gt;    - harga : BigDecimal&lt;br/&gt;    - kuantitas : int&lt;br/&gt;    - subtotal : BigDecimal" style="text;strokeColor=none;fillColor=none;align=left;verticalAlign=top;spacingLeft=4;spacingRight=4;overflow=hidden;rotatable=0;points=[[0,0.5],[1,0.5]];portConstraint=eastwest;whiteSpace=wrap;html=1;" vertex="1" parent="b87di34r01hxxmTsJ-qe-4">
          <mxGeometry y="26" width="740" height="114" as="geometry" />
        </mxCell>
        <mxCell id="b87di34r01hxxmTsJ-qe-6" value="" style="line;strokeWidth=1;fillColor=none;align=left;verticalAlign=middle;spacingTop=-1;spacingLeft=3;spacingRight=3;rotatable=0;labelPosition=right;points=[];portConstraint=eastwest;strokeColor=inherit;" vertex="1" parent="b87di34r01hxxmTsJ-qe-4">
          <mxGeometry y="140" width="740" height="8" as="geometry" />
        </mxCell>
        <mxCell id="b87di34r01hxxmTsJ-qe-7" value="&amp;nbsp; &amp;nbsp; + DetailTransaksi()&lt;br/&gt;    + DetailTransaksi(idDetail: int, noPesanan: String, produk: Produk, nama: String, harga: BigDecimal, kuantitas: int, subtotal: BigDecimal)&lt;br/&gt;    + getIdDetail() : int&lt;br/&gt;    + setIdDetail(idDetail: int) : void&lt;br/&gt;    + getNoPesanan() : String&lt;br/&gt;    + setNoPesanan(noPesanan: String) : void&lt;br/&gt;    + getProduk() : Produk&lt;br/&gt;    + setProduk(produk: Produk) : void&lt;br/&gt;    + getNama() : String&lt;br/&gt;    + setNama(nama: String) : void&lt;br/&gt;    + getHarga() : BigDecimal&lt;br/&gt;    + setHarga(harga: BigDecimal) : void&lt;br/&gt;    + getKuantitas() : int&lt;br/&gt;    + setKuantitas(kuantitas: int) : void&lt;br/&gt;    + getSubtotal() : BigDecimal&lt;br/&gt;    + setSubtotal(subtotal: BigDecimal) : void" style="text;strokeColor=none;fillColor=none;align=left;verticalAlign=top;spacingLeft=4;spacingRight=4;overflow=hidden;rotatable=0;points=[[0,0.5],[1,0.5]];portConstraint=eastwest;whiteSpace=wrap;html=1;" vertex="1" parent="b87di34r01hxxmTsJ-qe-4">
          <mxGeometry y="148" width="740" height="242" as="geometry" />
        </mxCell>
        <mxCell id="b87di34r01hxxmTsJ-qe-8" value="Transaksi" style="swimlane;fontStyle=1;align=center;verticalAlign=top;childLayout=stackLayout;horizontal=1;startSize=26;horizontalStack=0;resizeParent=1;resizeParentMax=0;resizeLast=0;collapsible=1;marginBottom=0;whiteSpace=wrap;html=1;" vertex="1" parent="WIyWlLk6GJQsqaUBKTNV-1">
          <mxGeometry x="350" y="530" width="430" height="320" as="geometry" />
        </mxCell>
        <mxCell id="b87di34r01hxxmTsJ-qe-9" value="- noPesanan: String&lt;div&gt;- namaPembeli: String&lt;/div&gt;&lt;div&gt;- tanggalTransaksi: LocalDate&lt;/div&gt;&lt;div&gt;- totalTransaksi: BigDecimal&lt;/div&gt;&lt;div&gt;- details: List&amp;amp;lt;DetailTransaksi&amp;gt;&lt;/div&gt;" style="text;strokeColor=none;fillColor=none;align=left;verticalAlign=top;spacingLeft=4;spacingRight=4;overflow=hidden;rotatable=0;points=[[0,0.5],[1,0.5]];portConstraint=eastwest;whiteSpace=wrap;html=1;" vertex="1" parent="b87di34r01hxxmTsJ-qe-8">
          <mxGeometry y="26" width="430" height="84" as="geometry" />
        </mxCell>
        <mxCell id="b87di34r01hxxmTsJ-qe-10" value="" style="line;strokeWidth=1;fillColor=none;align=left;verticalAlign=middle;spacingTop=-1;spacingLeft=3;spacingRight=3;rotatable=0;labelPosition=right;points=[];portConstraint=eastwest;strokeColor=inherit;" vertex="1" parent="b87di34r01hxxmTsJ-qe-8">
          <mxGeometry y="110" width="430" height="8" as="geometry" />
        </mxCell>
        <mxCell id="b87di34r01hxxmTsJ-qe-11" value="+ JudulTransaksi()&lt;div&gt;+ JudulTransaksi(noPesanan: String, namaPembeli: String, tanggalTransaksi: LocalDate, totalTransaksi: BigDecimal)&lt;/div&gt;&lt;div&gt;+ getNoPesanan(): String&lt;/div&gt;&lt;div&gt;+ setNoPesanan(noPesanan: String): void&lt;/div&gt;&lt;div&gt;+ getNamaPembeli(): String&lt;/div&gt;&lt;div&gt;+ setNamaPembeli(namaPembeli: String): void&lt;/div&gt;&lt;div&gt;+ getTanggalTransaksi(): LocalDate&lt;/div&gt;&lt;div&gt;+ setTanggalTransaksi(tanggalTransaksi: LocalDate): void&lt;/div&gt;&lt;div&gt;+ getTotalTransaksi(): BigDecimal&lt;/div&gt;&lt;div&gt;+ setTotalTransaksi(totalTransaksi: BigDecimal): void&lt;/div&gt;&lt;div&gt;+ getDetails(): List&amp;amp;lt;DetailTransaksi&amp;gt;&lt;/div&gt;&lt;div&gt;+ setDetails(details: List&amp;amp;lt;DetailTransaksi&amp;gt;): void&lt;/div&gt;" style="text;strokeColor=none;fillColor=none;align=left;verticalAlign=top;spacingLeft=4;spacingRight=4;overflow=hidden;rotatable=0;points=[[0,0.5],[1,0.5]];portConstraint=eastwest;whiteSpace=wrap;html=1;" vertex="1" parent="b87di34r01hxxmTsJ-qe-8">
          <mxGeometry y="118" width="430" height="202" as="geometry" />
        </mxCell>
        <mxCell id="b87di34r01hxxmTsJ-qe-12" value="Dashboard" style="swimlane;fontStyle=1;align=center;verticalAlign=top;childLayout=stackLayout;horizontal=1;startSize=26;horizontalStack=0;resizeParent=1;resizeParentMax=0;resizeLast=0;collapsible=1;marginBottom=0;whiteSpace=wrap;html=1;" vertex="1" parent="WIyWlLk6GJQsqaUBKTNV-1">
          <mxGeometry x="-90" width="420" height="240" as="geometry" />
        </mxCell>
        <mxCell id="b87di34r01hxxmTsJ-qe-13" value="    - totalPendapatanBulanan : BigDecimal&lt;br/&gt;    - totalBarangTerjual : int&lt;br/&gt;    - labaBersihBulanan : BigDecimal&lt;br/&gt;    - kenaikanLabaMoM : double" style="text;strokeColor=none;fillColor=none;align=left;verticalAlign=top;spacingLeft=4;spacingRight=4;overflow=hidden;rotatable=0;points=[[0,0.5],[1,0.5]];portConstraint=eastwest;whiteSpace=wrap;html=1;" vertex="1" parent="b87di34r01hxxmTsJ-qe-12">
          <mxGeometry y="26" width="420" height="64" as="geometry" />
        </mxCell>
        <mxCell id="b87di34r01hxxmTsJ-qe-14" value="" style="line;strokeWidth=1;fillColor=none;align=left;verticalAlign=middle;spacingTop=-1;spacingLeft=3;spacingRight=3;rotatable=0;labelPosition=right;points=[];portConstraint=eastwest;strokeColor=inherit;" vertex="1" parent="b87di34r01hxxmTsJ-qe-12">
          <mxGeometry y="90" width="420" height="8" as="geometry" />
        </mxCell>
        <mxCell id="b87di34r01hxxmTsJ-qe-15" value="    + DashboardStats()&lt;br/&gt;    + getTotalPendapatanBulanan() : BigDecimal&lt;br/&gt;    + setTotalPendapatanBulanan(totalPendapatanBulanan : BigDecimal) : void&lt;br/&gt;    + getTotalBarangTerjual() : int&lt;br/&gt;    + setTotalBarangTerjual(totalBarangTerjual : int) : void&lt;br/&gt;    + getLabaBersihBulanan() : BigDecimal&lt;br/&gt;    + setLabaBersihBulanan(labaBersihBulanan : BigDecimal) : void&lt;br/&gt;    + getKenaikanLabaMoM() : double&lt;br/&gt;    + setKenaikanLabaMoM(kenaikanLabaMoM : double) : void" style="text;strokeColor=none;fillColor=none;align=left;verticalAlign=top;spacingLeft=4;spacingRight=4;overflow=hidden;rotatable=0;points=[[0,0.5],[1,0.5]];portConstraint=eastwest;whiteSpace=wrap;html=1;" vertex="1" parent="b87di34r01hxxmTsJ-qe-12">
          <mxGeometry y="98" width="420" height="142" as="geometry" />
        </mxCell>
        <mxCell id="b87di34r01hxxmTsJ-qe-18" style="edgeStyle=orthogonalEdgeStyle;rounded=0;orthogonalLoop=1;jettySize=auto;html=1;entryX=0.5;entryY=0;entryDx=0;entryDy=0;endArrow=none;startFill=0;" edge="1" parent="WIyWlLk6GJQsqaUBKTNV-1" source="tfznbN89w9xABcOKFlEP-3" target="tfznbN89w9xABcOKFlEP-8">
          <mxGeometry relative="1" as="geometry" />
        </mxCell>
        <mxCell id="b87di34r01hxxmTsJ-qe-21" style="edgeStyle=orthogonalEdgeStyle;rounded=0;orthogonalLoop=1;jettySize=auto;html=1;entryX=-0.001;entryY=0.543;entryDx=0;entryDy=0;entryPerimeter=0;endArrow=none;startFill=0;" edge="1" parent="WIyWlLk6GJQsqaUBKTNV-1" source="tfznbN89w9xABcOKFlEP-19" target="b87di34r01hxxmTsJ-qe-11">
          <mxGeometry relative="1" as="geometry" />
        </mxCell>
        <mxCell id="tfznbN89w9xABcOKFlEP-48" value="ProdukService" style="swimlane;fontStyle=1;align=center;verticalAlign=top;childLayout=stackLayout;horizontal=1;startSize=26;horizontalStack=0;resizeParent=1;resizeParentMax=0;resizeLast=0;collapsible=1;marginBottom=0;whiteSpace=wrap;html=1;" parent="WIyWlLk6GJQsqaUBKTNV-1" vertex="1">
          <mxGeometry x="390" y="1640" width="240" height="174" as="geometry" />
        </mxCell>
        <mxCell id="tfznbN89w9xABcOKFlEP-50" value="" style="line;strokeWidth=1;fillColor=none;align=left;verticalAlign=middle;spacingTop=-1;spacingLeft=3;spacingRight=3;rotatable=0;labelPosition=right;points=[];portConstraint=eastwest;strokeColor=inherit;" parent="tfznbN89w9xABcOKFlEP-48" vertex="1">
          <mxGeometry y="26" width="240" height="8" as="geometry" />
        </mxCell>
        <mxCell id="tfznbN89w9xABcOKFlEP-51" value="+ ProdukService()&lt;div&gt;+ addProduk(produk: Produk): boolean&lt;/div&gt;&lt;div&gt;+ updateProduk(produk: Produk): boolean&lt;/div&gt;&lt;div&gt;+ deleteProduk(kodeProduk: String): boolean&lt;/div&gt;&lt;div&gt;+ getAllProduk(): List&amp;amp;lt;Produk&amp;gt;&lt;/div&gt;&lt;div&gt;+ getProdukPaginated(offset: int, limit: int): List&amp;amp;lt;Produk&amp;gt;&lt;/div&gt;&lt;div&gt;+ getProdukByKode(kodeProduk: String): Produk&lt;/div&gt;&lt;div&gt;+ getTotalProdukCount(): int- mapResultSetToProduk(rs: ResultSet): Produk- closeResources(resources: AutoCloseable...): void&lt;/div&gt;" style="text;strokeColor=none;fillColor=none;align=left;verticalAlign=top;spacingLeft=4;spacingRight=4;overflow=hidden;rotatable=0;points=[[0,0.5],[1,0.5]];portConstraint=eastwest;whiteSpace=wrap;html=1;" parent="tfznbN89w9xABcOKFlEP-48" vertex="1">
          <mxGeometry y="34" width="240" height="140" as="geometry" />
        </mxCell>
        <mxCell id="b87di34r01hxxmTsJ-qe-24" style="edgeStyle=orthogonalEdgeStyle;rounded=0;orthogonalLoop=1;jettySize=auto;html=1;entryX=0;entryY=0.5;entryDx=0;entryDy=0;endArrow=none;startFill=0;" edge="1" parent="WIyWlLk6GJQsqaUBKTNV-1" source="tfznbN89w9xABcOKFlEP-55" target="tfznbN89w9xABcOKFlEP-35">
          <mxGeometry relative="1" as="geometry" />
        </mxCell>
        <mxCell id="b87di34r01hxxmTsJ-qe-25" style="edgeStyle=orthogonalEdgeStyle;rounded=0;orthogonalLoop=1;jettySize=auto;html=1;entryX=0.001;entryY=0.422;entryDx=0;entryDy=0;entryPerimeter=0;endArrow=none;startFill=0;" edge="1" parent="WIyWlLk6GJQsqaUBKTNV-1" source="tfznbN89w9xABcOKFlEP-59" target="tfznbN89w9xABcOKFlEP-51">
          <mxGeometry relative="1" as="geometry" />
        </mxCell>
      </root>
    </mxGraphModel>
  </diagram>
</mxfile>
